<svg width="25" height="27" xmlns="http://www.w3.org/2000/svg" xmlns:xlink="http://www.w3.org/1999/xlink" xmlns:svgjs="http://svgjs.com/svgjs" viewBox="0.039 0 24.923 27" fill="#fff"><svg xmlns="http://www.w3.org/2000/svg" width="25" height="27" viewBox="1 2 24 26"><path paint-order="stroke fill markers" fill-rule="evenodd" d="M11.262 3.591c4.4 0 8.683 2.88 8.683 8.626 0 5.746-4.283 8.625-8.683 8.625-4.4 0-8.683-2.88-8.683-8.625 0-5.747 4.282-8.626 8.683-8.626zm0-1.591C6.19 2 1 5.402 1 12.217s5.19 10.216 10.262 10.216c1.907 0 3.831-.48 5.49-1.443l6.67 7.01L25 26.409l-6.444-6.768c1.785-1.699 2.968-4.174 2.968-7.424C21.524 5.402 16.334 2 11.262 2z"/></svg></svg>